HIERARCHY
ROOT mixamorig:Hips
{
  OFFSET 0.000000 0.000000 0.000000
  CHANNELS 6 Xposition Yposition Zposition Xrotation Yrotation Zrotation
  JOINT mixamorig:Spine
  {
    OFFSET 1.277922 23.685776 -1.473739
    CHANNELS 3 Xrotation Yrotation Zrotation
    JOINT mixamorig:Spine2
    {
      OFFSET 1.277922 23.685776 -1.473739
      CHANNELS 3 Xrotation Yrotation Zrotation
      JOINT mixamorig:Neck
      {
        OFFSET 0.000000 4.227248 0.000000
        CHANNELS 3 Xrotation Yrotation Zrotation
        JOINT mixamorig:Head
        {
          OFFSET 0.000000 3.735021 0.000000
          CHANNELS 3 Xrotation Yrotation Zrotation
          End Site
          {
            OFFSET 0.000000 1.120506 0.000000
          }
        }
      }
      JOINT mixamorig:LeftShoulder
      {
        OFFSET 15.589172 3.940868 -1.613959
        CHANNELS 3 Xrotation Yrotation Zrotation
        JOINT mixamorig:LeftArm
        {
          OFFSET 10.000000 -2.000000 0.000000
          CHANNELS 3 Xrotation Yrotation Zrotation
          JOINT mixamorig:LeftForeArm
          {
            OFFSET 21.758426 0.000000 0.000000
            CHANNELS 3 Xrotation Yrotation Zrotation
            JOINT mixamorig:LeftHand
            {
              OFFSET 22.844967 0.000000 0.000000
              CHANNELS 3 Xrotation Yrotation Zrotation
              End Site
              {
                OFFSET 6.853490 0.000000 0.000000
              }
            }
          }
        }
      }
      JOINT mixamorig:RightShoulder
      {
        OFFSET -15.589172 3.940868 1.613959
        CHANNELS 3 Xrotation Yrotation Zrotation
        JOINT mixamorig:RightArm
        {
          OFFSET -10.000000 -2.000000 0.000000
          CHANNELS 3 Xrotation Yrotation Zrotation
          JOINT mixamorig:RightForeArm
          {
            OFFSET -28.500106 0.000000 0.000000
            CHANNELS 3 Xrotation Yrotation Zrotation
            JOINT mixamorig:RightHand
            {
              OFFSET -30.537220 0.000000 0.000000
              CHANNELS 3 Xrotation Yrotation Zrotation
              End Site
              {
                OFFSET -9.161166 0.000000 0.000000
              }
            }
          }
        }
      }
    }
  }
  JOINT mixamorig:LeftUpLeg
  {
    OFFSET 9.460444 -0.159481 1.370640
    CHANNELS 3 Xrotation Yrotation Zrotation
    JOINT mixamorig:LeftLeg
    {
      OFFSET 11.476000 -40.598035 -6.922701
      CHANNELS 3 Xrotation Yrotation Zrotation
      JOINT mixamorig:LeftFoot
      {
        OFFSET 10.790807 -36.194235 11.674022
        CHANNELS 3 Xrotation Yrotation Zrotation
        JOINT mixamorig:LeftToeBase
        {
          OFFSET -0.217554 -6.343681 -6.642804
          CHANNELS 3 Xrotation Yrotation Zrotation
          End Site
          {
            OFFSET -0.065266 -1.903104 -1.992841
          }
        }
      }
    }
  }
  JOINT mixamorig:RightUpLeg
  {
    OFFSET -9.460444 0.159481 -1.370640
    CHANNELS 3 Xrotation Yrotation Zrotation
    JOINT mixamorig:RightLeg
    {
      OFFSET -1.472079 -34.936613 11.400775
      CHANNELS 3 Xrotation Yrotation Zrotation
      JOINT mixamorig:RightFoot
      {
        OFFSET -9.570470 -38.467240 26.014859
        CHANNELS 3 Xrotation Yrotation Zrotation
        JOINT mixamorig:RightToeBase
        {
          OFFSET -7.756088 -3.724676 -6.009160
          CHANNELS 3 Xrotation Yrotation Zrotation
          End Site
          {
            OFFSET -2.326826 -1.117403 -1.802748
          }
        }
      }
    }
  }
}
MOTION
Frames: 18
Frame Time: 0.083333
0.094642 0.151122 0.145338 3.339222 -0.174614 0.166673 0.000034 0.000650 0.010476 -3.221582 6.266401 -0.178967 -3.095684 -6.447312 5.169409 -3.606784 -6.156910 5.496736 0.000000 0.000000 0.000000 -24.028839 26.319145 -84.635508 -168.040047 32.787228 -176.486378 0.000000 0.000000 0.000000 0.000000 0.000000 0.000000 -30.694149 -28.677751 94.069206 -116.755499 -30.574156 160.888041 0.000000 0.000000 0.000000 -3.171608 -0.765675 -0.916436 -0.738238 0.094931 0.947280 -1.962679 0.774061 -0.704744 0.000000 0.000000 0.000000 -0.789828 -0.073932 -0.348876 -2.238139 0.205197 -0.498429 0.492647 0.111117 -0.701749 0.000000 0.000000 0.000000
0.094871 0.150992 0.146661 3.322922 -0.173625 0.171246 0.000034 0.000644 0.010376 -3.223138 6.237851 -0.181515 -3.117344 -6.403688 5.170807 -3.624695 -6.111622 5.499071 0.000000 0.000000 0.000000 -24.199144 26.471198 -84.707032 -167.965526 32.650403 -176.499115 0.000000 0.000000 0.000000 0.000000 0.000000 0.000000 -30.776536 -28.729478 94.122484 -116.692818 -30.474553 160.932482 0.000000 0.000000 0.000000 -3.187895 -0.777688 -0.871650 -0.822950 0.042175 0.860552 -2.004158 0.618135 -0.537711 0.000000 0.000000 0.000000 -1.073426 -0.063411 -0.357449 -2.056854 0.182433 -0.464131 0.476863 0.140252 -0.699281 0.000000 0.000000 0.000000
0.095103 0.150742 0.149338 3.509794 -0.172707 0.521872 0.000037 0.000717 0.011552 -3.213468 6.415294 -0.551784 -3.344535 -6.895674 5.065042 -3.870267 -6.591659 5.444149 0.000000 0.000000 0.000000 -24.384415 25.843198 -86.514023 -163.544587 29.833702 -175.674320 0.000000 0.000000 0.000000 0.000000 0.000000 0.000000 -30.907908 -28.753242 94.320661 -112.238560 -29.669593 159.855591 0.000000 0.000000 0.000000 -3.723577 -0.753754 -2.178455 -2.560176 -0.285515 1.398280 -5.209410 0.164344 0.037031 0.000000 0.000000 0.000000 2.005782 -0.432025 -1.140624 -5.324882 0.449691 -1.227498 1.311867 0.494759 -1.991378 0.000000 0.000000 0.000000
0.094880 0.150513 0.151838 3.529025 -0.163887 0.836938 0.000032 0.000725 0.011679 -3.223024 6.239880 -0.865591 -3.605532 -6.873585 5.048661 -4.121027 -6.549860 5.459124 0.000000 0.000000 0.000000 -26.215501 26.681086 -88.891667 -157.584193 25.901089 -174.887377 0.000000 0.000000 0.000000 0.000000 0.000000 0.000000 -32.358368 -29.781316 94.972369 -107.522329 -27.866695 159.420333 0.000000 0.000000 0.000000 -4.131943 -0.771227 -2.960605 -4.171840 -0.880701 1.039336 -7.010378 -1.293015 1.630404 0.000000 0.000000 0.000000 2.478026 -0.719408 -2.034551 -6.567822 0.557355 -1.497182 1.845633 1.036908 -3.013520 0.000000 0.000000 0.000000
0.094628 0.150345 0.154324 3.473287 -0.154933 1.011808 0.000012 0.000703 0.011315 -3.242962 5.873777 -1.030507 -3.682046 -6.382107 5.139117 -4.171937 -6.045828 5.531101 0.000000 0.000000 0.000000 -28.100374 27.831935 -90.575933 -151.432525 22.660349 -174.163413 0.000000 0.000000 0.000000 0.000000 0.000000 0.000000 -34.569077 -31.437131 95.737215 -103.746029 -26.024650 159.443921 0.000000 0.000000 0.000000 -4.113259 -0.699015 -3.458208 -4.484225 -1.216077 0.376343 -6.045716 -2.495561 2.844746 0.000000 0.000000 0.000000 2.399553 -0.996006 -2.956442 -6.873504 0.650030 -1.474832 2.105374 1.298640 -3.509190 0.000000 0.000000 0.000000
0.094637 0.150355 0.156947 3.406075 -0.148926 1.067937 -0.000015 0.000678 0.010878 -3.253342 5.683022 -1.078042 -3.841665 -5.580749 5.172783 -4.276104 -5.229205 5.537411 0.000000 0.000000 0.000000 -28.599852 28.584404 -90.040640 -150.034959 21.846495 -174.083172 0.000000 0.000000 0.000000 0.000000 0.000000 0.000000 -35.765744 -32.016140 96.704429 -101.022954 -25.065599 159.257073 0.000000 0.000000 0.000000 -4.016976 -0.616012 -3.853242 -4.620072 -1.455343 -0.150447 -5.077377 -3.695166 4.026239 0.000000 0.000000 0.000000 2.673555 -1.202014 -3.635967 -7.256641 0.622725 -1.633398 2.237028 0.947136 -3.450367 0.000000 0.000000 0.000000
0.094854 0.150692 0.159445 3.392797 -0.147844 1.075464 -0.000020 0.000673 0.010794 -3.245791 5.821801 -1.085146 -4.161860 -5.449425 5.162798 -4.580517 -5.072564 5.551938 0.000000 0.000000 0.000000 -29.234461 29.674979 -89.123430 -151.675719 20.954163 -174.653610 0.000000 0.000000 0.000000 0.000000 0.000000 0.000000 -36.942488 -32.273245 98.193550 -94.666884 -23.491321 158.315775 0.000000 0.000000 0.000000 -4.031409 -0.571129 -4.220901 -5.267108 -1.904035 -0.814742 -5.025079 -4.829678 5.194317 0.000000 0.000000 0.000000 3.466419 -1.385468 -4.241221 -7.980908 0.680736 -1.793984 2.020849 0.658919 -2.994731 0.000000 0.000000 0.000000
0.095158 0.151360 0.160856 3.361706 -0.146196 1.065712 -0.000031 0.000661 0.010597 -3.265005 5.467817 -1.070703 -4.685788 -5.275339 5.122401 -5.080089 -4.859155 5.551799 0.000000 0.000000 0.000000 -29.999578 31.239630 -87.593042 -157.387824 20.991067 -175.804890 0.000000 0.000000 0.000000 0.000000 0.000000 0.000000 -38.211629 -32.915274 99.081786 -90.831181 -22.174896 158.140742 0.000000 0.000000 0.000000 -4.054832 -0.524103 -4.625812 -5.297604 -2.005392 -1.055960 -4.311459 -5.710249 6.011395 0.000000 0.000000 0.000000 3.821726 -1.614872 -5.034640 -8.234870 1.129803 -1.307895 1.944344 0.215869 -2.618944 0.000000 0.000000 0.000000
0.095628 0.152400 0.161101 3.365154 -0.146979 1.048233 -0.000028 0.000662 0.010620 -3.323788 4.384075 -1.048565 -5.183571 -5.048353 5.080367 -5.550977 -4.596267 5.541989 0.000000 0.000000 0.000000 -30.195170 32.743229 -85.143450 -141.512880 22.439115 -150.031036 0.000000 0.000000 0.000000 0.000000 0.000000 0.000000 -38.864305 -33.352397 99.329020 -90.482672 -21.006948 159.146374 0.000000 0.000000 0.000000 -4.075483 -0.468435 -5.089530 -5.129876 -1.841696 -0.763021 -3.711005 -6.540661 6.774666 0.000000 0.000000 0.000000 4.352968 -1.831715 -5.808705 -8.893575 1.933700 -0.509823 1.945661 -0.353771 -2.267163 0.000000 0.000000 0.000000
0.096199 0.153760 0.160611 3.414205 -0.151264 1.011353 -0.000007 0.000680 0.010930 -3.385980 3.235060 -1.011525 -5.647798 -5.136568 4.993567 -6.006520 -4.657353 5.507895 0.000000 0.000000 0.000000 -29.896181 33.821624 -82.572571 -27.720487 24.195035 -26.913589 0.000000 0.000000 0.000000 0.000000 0.000000 0.000000 -39.026165 -33.543374 99.240884 -92.042421 -20.144496 160.548677 0.000000 0.000000 0.000000 -4.137986 -0.439397 -5.457788 -4.845947 -1.503825 -0.100843 -2.896792 -6.826512 6.938415 0.000000 0.000000 0.000000 5.073694 -1.918863 -6.155883 -9.367207 2.317432 -0.192115 1.856012 -1.199427 -1.637740 0.000000 0.000000 0.000000
0.096724 0.154888 0.159985 3.409475 -0.152648 0.960535 -0.000002 0.000679 0.010905 -3.406076 2.863008 -0.959406 -5.992086 -5.251150 4.865220 -6.341506 -4.759799 5.424300 0.000000 0.000000 0.000000 -29.357686 33.922602 -81.313912 172.406410 24.638206 178.338144 0.000000 0.000000 0.000000 0.000000 0.000000 0.000000 -39.234974 -33.691222 99.304168 -91.163698 -19.615049 160.765118 0.000000 0.000000 0.000000 -4.136399 -0.429958 -5.524156 -4.094450 -1.210546 0.070723 -1.971933 -7.113211 7.081330 0.000000 0.000000 0.000000 5.360426 -1.949159 -6.282776 -9.270222 2.390096 -0.067883 1.907312 -2.150143 -1.126219 0.000000 0.000000 0.000000
0.097013 0.155430 0.158563 3.284922 -0.148067 0.870787 -0.000018 0.000633 0.010153 -3.381390 3.319749 -0.862252 -6.138616 -5.415953 4.718075 -6.482225 -4.932034 5.308079 0.000000 0.000000 0.000000 -28.936091 33.751768 -80.764909 166.382310 24.416889 177.047694 0.000000 0.000000 0.000000 0.000000 0.000000 0.000000 -39.320090 -33.753619 99.325983 -88.655258 -19.750893 159.757740 0.000000 0.000000 0.000000 -3.998807 -0.396564 -5.433983 -2.579401 -0.740352 0.105708 -1.591791 -7.220691 7.127913 0.000000 0.000000 0.000000 4.542003 -1.922397 -6.140018 -8.132031 2.240785 0.144484 1.878681 -1.889759 -1.246984 0.000000 0.000000 0.000000
0.097210 0.155552 0.156201 3.002454 -0.137506 0.680625 -0.000045 0.000530 0.008485 -3.331489 4.242417 -0.653343 -6.439044 -5.467315 4.239696 -6.739758 -5.018702 4.864121 0.000000 0.000000 0.000000 -28.851026 33.596054 -80.872838 164.070256 23.557802 176.645466 0.000000 0.000000 0.000000 0.000000 0.000000 0.000000 -39.200383 -33.524552 99.546773 -84.746233 -20.066923 158.020310 0.000000 0.000000 0.000000 -3.655408 -0.313708 -5.210453 -0.489842 -0.085034 0.191803 -1.919448 -7.123187 7.082908 0.000000 0.000000 0.000000 3.142820 -1.847853 -5.813641 -6.375605 2.074144 0.556317 1.872985 -0.977411 -1.794879 0.000000 0.000000 0.000000
0.097761 0.155273 0.154450 2.855275 -0.135075 0.502690 -0.000034 0.000480 0.007678 -3.293304 4.947195 -0.464450 -6.596735 -5.484888 3.569204 -6.833488 -5.106038 4.210769 0.000000 0.000000 0.000000 -28.479667 32.756205 -81.655220 139.766040 22.362110 149.569719 0.000000 0.000000 0.000000 0.000000 0.000000 0.000000 -38.892150 -33.116735 99.798543 -82.140132 -20.293667 156.799897 0.000000 0.000000 0.000000 -3.232924 -0.212494 -4.941510 0.926553 0.370076 0.305599 -2.322815 -6.834818 6.859397 0.000000 0.000000 0.000000 1.499562 -1.719823 -5.325433 -5.161446 1.952785 0.838385 1.708271 0.562930 -2.554255 0.000000 0.000000 0.000000
0.098468 0.154717 0.154242 3.107132 -0.153890 0.386368 0.000010 0.000568 0.009145 -3.270347 5.369408 -0.373500 -6.713916 -6.078641 3.215695 -6.925840 -5.742734 3.937513 0.000000 0.000000 0.000000 -27.204322 30.415933 -83.390387 23.848268 22.069206 26.146704 0.000000 0.000000 0.000000 0.000000 0.000000 0.000000 -37.195645 -31.647134 99.800445 -85.268428 -21.713960 156.507768 0.000000 0.000000 0.000000 -3.020206 -0.193273 -4.586704 1.336750 0.544086 0.476480 -2.674544 -6.013623 6.097153 0.000000 0.000000 0.000000 0.793284 -1.517259 -4.666785 -5.425969 2.037359 0.853103 1.159058 2.910881 -3.371618 0.000000 0.000000 0.000000
0.098949 0.153943 0.154813 3.432318 -0.171950 0.402619 0.000031 0.000686 0.011052 -3.219995 6.295373 -0.423244 -7.253356 -6.913743 2.835041 -7.430821 -6.610795 3.713222 0.000000 0.000000 0.000000 -25.583856 27.916832 -84.832280 -175.943937 22.697656 -179.188718 0.000000 0.000000 0.000000 0.000000 0.000000 0.000000 -34.680532 -29.342391 100.043710 -87.982259 -24.004781 155.185078 0.000000 0.000000 0.000000 -3.219167 -0.325407 -4.121376 0.607165 0.353058 0.545714 -2.529988 -4.423256 4.489801 0.000000 0.000000 0.000000 0.290957 -1.288916 -3.954264 -5.689964 2.115957 0.860087 0.621065 4.528234 -3.763233 0.000000 0.000000 0.000000
0.099247 0.153322 0.155653 3.348279 -0.165075 0.465519 0.000021 0.000653 0.010513 -3.202720 6.612296 -0.479336 -7.799179 -6.740415 2.660808 -7.943167 -6.440617 3.586588 0.000000 0.000000 0.000000 -25.503112 27.343855 -85.864029 -172.796669 22.673633 -178.554740 0.000000 0.000000 0.000000 0.000000 0.000000 0.000000 -34.095078 -28.716726 100.288588 -88.597199 -25.011966 154.394780 0.000000 0.000000 0.000000 -2.896014 -0.333357 -3.361724 0.393726 0.288608 0.538362 -2.645597 -1.869168 1.958613 0.000000 0.000000 0.000000 -0.139415 -1.101855 -3.384527 -5.237902 2.133359 1.051922 0.701379 4.494703 -3.843846 0.000000 0.000000 0.000000
0.099417 0.152945 0.156724 3.335014 -0.159763 0.602924 0.000009 0.000649 0.010430 -3.206998 6.533896 -0.613712 -7.731914 -7.004815 2.761055 -7.888284 -6.695725 3.713189 0.000000 0.000000 0.000000 -25.952607 27.743963 -86.034706 -173.657783 22.981114 -178.709117 0.000000 0.000000 0.000000 0.000000 0.000000 0.000000 -34.517425 -28.907635 100.638460 -84.967374 -24.048378 153.806982 0.000000 0.000000 0.000000 -2.291574 -0.249713 -2.657394 0.377233 0.317817 0.643766 -2.524556 1.351583 -1.260800 0.000000 0.000000 0.000000 -0.507335 -1.086940 -3.348974 -4.736278 2.362297 1.548133 0.415168 4.530993 -3.499432 0.000000 0.000000 0.000000
